<?xml version="1.0" encoding="UTF-8"?>
<svg version="1.1" xmlns="http://www.w3.org/2000/svg" width="128" height="128">
<path d="M0 0 C11.87464704 8.93210254 19.63978921 21.2375495 22 36 C23.05871285 52.30824981 19.42713776 65.67953453 8.8125 78.25 C-0.31760037 87.88477929 -12.77784907 94.3363897 -26.12890625 95.203125 C-42.62034858 95.42826414 -55.63816749 90.92085557 -67.7109375 79.48046875 C-78.09862002 68.22419162 -82.36819295 54.76038509 -82.2109375 39.6953125 C-81.37621192 25.0721569 -74.68108925 12.85687921 -64 3 C-45.01517802 -11.68159567 -20.16334629 -13.51121592 0 0 Z " fill="#FFF3CD" transform="translate(94,21)"/>
<path d="M0 0 C11.87464704 8.93210254 19.63978921 21.2375495 22 36 C23.05871285 52.30824981 19.42713776 65.67953453 8.8125 78.25 C-0.31760037 87.88477929 -12.77784907 94.3363897 -26.12890625 95.203125 C-42.62034858 95.42826414 -55.63816749 90.92085557 -67.7109375 79.48046875 C-78.09862002 68.22419162 -82.36819295 54.76038509 -82.2109375 39.6953125 C-81.37621192 25.0721569 -74.68108925 12.85687921 -64 3 C-45.01517802 -11.68159567 -20.16334629 -13.51121592 0 0 Z M-64 14 C-72.1239126 25.24849437 -74.81867709 36.26111 -74 50 C-72.04821735 61.11132955 -65.81183149 72.08034393 -56.609375 78.7265625 C-45.19630374 85.83347497 -33.62626203 88.86657715 -20.17578125 86.50390625 C-8.93279127 83.37987293 1.09004761 77.05520679 7.3125 67.0625 C13.65374945 55.74130193 16.36952039 43.48875417 12.8125 30.6875 C8.37585429 18.07917195 0.98856422 9.00366283 -11 3 C-29.61121204 -5.17233325 -50.17238772 -1.05284375 -64 14 Z " fill="#887760" transform="translate(94,21)"/>
<path d="M0 0 C4.64884756 0.38740396 7.95155045 1.61229782 11.75 4.3125 C15.91914657 9.55065851 17.29727424 13.63575422 16.75 20.3125 C14.85096173 26.12898294 12.24367807 29.39033081 6.75 32.3125 C1.67461603 34.00429466 -2.56964436 33.87621867 -7.4375 31.6875 C-12.24323582 29.07042293 -14.53402397 25.46042809 -16.25 20.3125 C-16.67141936 14.8340483 -15.924874 11.12727319 -13.25 6.3125 C-9.19988362 1.91069285 -5.783591 0.55611452 0 0 Z " fill="#FFFDDB" transform="translate(44.25,27.6875)"/>
</svg>
